<?xml version="1.0" encoding="utf-8"?>
<!-- Generator: Adobe Illustrator 23.0.3, SVG Export Plug-In . SVG Version: 6.00 Build 0)  -->
<svg version="1.1" id="Layer_1" xmlns="http://www.w3.org/2000/svg" xmlns:xlink="http://www.w3.org/1999/xlink" x="0px" y="0px"
	 viewBox="0 0 32 32" style="enable-background:new 0 0 32 32;" xml:space="preserve">
<g>
	<g>
		<path d="M23.9423828,32H8.0576172C5.8203125,32,4,30.1796875,4,27.9423828c0-6.6171875,5.3833008-12,12-12s12,5.3828125,12,12
			C28,30.1796875,26.1796875,32,23.9423828,32z M16,17.9423828c-5.5141602,0-10,4.4863281-10,10
			C6,29.0771484,6.9228516,30,8.0576172,30h15.8847656C25.0771484,30,26,29.0771484,26,27.9423828
			C26,22.4287109,21.5141602,17.9423828,16,17.9423828z"/>
	</g>
	<g>
		<path d="M22,14H10c-0.5522461,0-1-0.4477539-1-1V7c0-3.8598633,3.1401367-7,7-7s7,3.1401367,7,7v6
			C23,13.5522461,22.5522461,14,22,14z M11,12h10V7c0-2.7568359-2.2431641-5-5-5s-5,2.2431641-5,5V12z"/>
	</g>
</g>
</svg>
