<!DOCTYPE svg PUBLIC "-//W3C//DTD SVG 1.1//EN" "http://www.w3.org/Graphics/SVG/1.1/DTD/svg11.dtd">
<!-- Uploaded to: SVG Repo, www.svgrepo.com, Transformed by: SVG Repo Mixer Tools -->
<svg height="800px" width="800px" version="1.1" id="_x32_" xmlns="http://www.w3.org/2000/svg" xmlns:xlink="http://www.w3.org/1999/xlink" viewBox="-25.6 -25.6 563.20 563.20" xml:space="preserve" fill="#000000" stroke="#000000" stroke-width="12.288">
<g id="SVGRepo_bgCarrier" stroke-width="0"/>
<g id="SVGRepo_tracerCarrier" stroke-linecap="round" stroke-linejoin="round"/>
<g id="SVGRepo_iconCarrier"> <style type="text/css"> .st0{fill:#000000;} </style> <g> <path class="st0" d="M345.293,131.536V99.417c0-30.758-24.924-55.691-55.692-55.691H55.691C24.924,43.726,0,68.659,0,99.417V273.8 c0,30.758,24.924,55.691,55.691,55.691h20.512l-16.674,83.354l114.068-83.354h21.383V218.482c0-47.938,39-86.946,86.948-86.946 H345.293z"/> <path class="st0" d="M456.309,162.792H281.928c-30.767,0-55.692,24.933-55.692,55.691v125.118 c0,30.758,24.925,55.691,55.692,55.691h86.406l94.394,68.982l-13.797-68.982h7.378c30.758,0,55.691-24.933,55.691-55.691V218.482 C512,187.724,487.067,162.792,456.309,162.792z"/> </g> </g>
</svg>